# xmcd
#
# Track frame offsets: 
#        150
#        11962
#        25355
#        37745
#        49740
#        64725
#        80450
#        93497
#        104887
#        116917
#        128035
#        140617
#        154495
#        166675
#        178880
#
# Disc length: 2525 seconds
#
# Revision: 1
# Processed by: cddbd v1.4PL0 Copyright (c) Steve Scherf et al.
# Submitted via: ExactAudioCopy v0.95a3
#
DISCID=d309db0f
DTITLE=Various Artist - Chart Toppers - R&B Hits of the 60's
DYEAR=1998
DGENRE=R&B
TTITLE0=Sam and Dave/Soul Man
TTITLE1=Martha Reeves and the Vandellas/Nowhere To Run
TTITLE2=Smokey Robinson and the Miracles/Ooh Baby Baby
TTITLE3=Charlie and Inez Foxx/Mockingbird
TTITLE4=Delfonics/La-La Means I Love You
TTITLE5=5th Dimension/Stoned Soul Picnic
TTITLE6=Jackie Wilson/Higher And Higher
TTITLE7=Little Anthony and the Imperials/Goin' Out of My Head
TTITLE8=Aaron Neville/Tell It Like It Is
TTITLE9=Jay and the Techniques/Apples Peaches and Pumpkin Pie
TTITLE10=Bobby Webb/Sunny
TTITLE11=Jimmy Ruffin/What Becomes Of the Broken-Hearted
TTITLE12=Drifters/Under The Boardwalk
TTITLE13=Little Milton/We're Gonna Make It
TTITLE14=Impressions/Gypsy Woman
EXTD=
EXTT0=
EXTT1=
EXTT2=
EXTT3=
EXTT4=
EXTT5=
EXTT6=
EXTT7=
EXTT8=
EXTT9=
EXTT10=
EXTT11=
EXTT12=
EXTT13=
EXTT14=
PLAYORDER=
